<svg width="216" height="216" viewBox="0 0 216 216" fill="none" xmlns="http://www.w3.org/2000/svg">
<circle cx="108" cy="108" r="107.5" stroke="#5658F6"/>
<path fill-rule="evenodd" clip-rule="evenodd" d="M130.451 92.2C130.451 104.875 120.176 115.15 107.501 115.15C94.8258 115.15 84.5507 104.875 84.5507 92.2C84.5507 79.5251 94.8258 69.25 107.501 69.25C120.176 69.25 130.451 79.5251 130.451 92.2ZM122.801 92.2C122.801 100.65 115.951 107.5 107.501 107.5C99.0507 107.5 92.2007 100.65 92.2007 92.2C92.2007 83.75 99.0507 76.9 107.501 76.9C115.951 76.9 122.801 83.75 122.801 92.2Z" fill="#5658F6"/>
<path d="M107.501 126.625C82.7362 126.625 61.6362 141.269 53.5986 161.785C55.5566 163.729 57.6192 165.568 59.7773 167.293C65.7624 148.457 84.5381 134.275 107.501 134.275C130.463 134.275 149.239 148.457 155.224 167.293C157.382 165.568 159.445 163.729 161.403 161.785C153.365 141.269 132.265 126.625 107.501 126.625Z" fill="#5658F6"/>
</svg>
