<svg width="30" height="29" viewBox="0 0 30 29" fill="none" xmlns="http://www.w3.org/2000/svg">
<rect x="0.5" y="0.5" width="27.7533" height="27.7533" rx="13.8767" stroke="#111111"/>
<path fill-rule="evenodd" clip-rule="evenodd" d="M17.4899 12.3005C17.4899 14.0198 16.0961 15.4135 14.3769 15.4135C12.6576 15.4135 11.2639 14.0198 11.2639 12.3005C11.2639 10.5812 12.6576 9.1875 14.3769 9.1875C16.0961 9.1875 17.4899 10.5812 17.4899 12.3005ZM16.4522 12.3005C16.4522 13.4467 15.523 14.3758 14.3769 14.3758C13.2307 14.3758 12.3015 13.4467 12.3015 12.3005C12.3015 11.1543 13.2307 10.2252 14.3769 10.2252C15.523 10.2252 16.4522 11.1543 16.4522 12.3005Z" fill="#111111"/>
<path d="M14.3769 16.97C11.0177 16.97 8.15566 18.9563 7.06543 21.7391C7.33102 22.0029 7.6108 22.2523 7.90352 22.4863C8.71536 19.9313 11.2621 18.0077 14.3769 18.0077C17.4916 18.0077 20.0384 19.9313 20.8502 22.4863C21.1429 22.2523 21.4227 22.0029 21.6883 21.7391C20.598 18.9563 17.736 16.97 14.3769 16.97Z" fill="#111111"/>
</svg>
