<svg width="124" height="126" viewBox="0 0 124 126" fill="none" xmlns="http://www.w3.org/2000/svg">
<path d="M43.146 89.2561L61.637 70.3546L80.1281 89.2561L87.3191 81.9055L68.828 63.004L87.3191 44.1026L80.1281 36.752L61.637 55.6535L43.146 36.752L35.955 44.1026L54.4461 63.004L35.955 81.9055L43.146 89.2561ZM61.637 115.508C54.5317 115.508 47.8543 114.13 41.605 111.373C35.3557 108.617 29.9197 104.876 25.2969 100.151C20.6742 95.4253 17.0145 89.8686 14.3179 83.4806C11.6213 77.0926 10.2729 70.2671 10.2729 63.004C10.2729 55.741 11.6213 48.9155 14.3179 42.5275C17.0145 36.1395 20.6742 30.5828 25.2969 25.8574C29.9197 21.1321 35.3557 17.3912 41.605 14.6347C47.8543 11.8782 54.5317 10.5 61.637 10.5C68.7424 10.5 75.4197 11.8782 81.669 14.6347C87.9183 17.3912 93.3544 21.1321 97.9771 25.8574C102.6 30.5828 106.26 36.1395 108.956 42.5275C111.653 48.9155 113.001 55.741 113.001 63.004C113.001 70.2671 111.653 77.0926 108.956 83.4806C106.26 89.8686 102.6 95.4253 97.9771 100.151C93.3544 104.876 87.9183 108.617 81.669 111.373C75.4197 114.13 68.7424 115.508 61.637 115.508ZM61.637 105.007C73.1083 105.007 82.8247 100.938 90.7862 92.8001C98.7476 84.662 102.728 74.7299 102.728 63.004C102.728 51.2781 98.7476 41.3461 90.7862 33.208C82.8247 25.0699 73.1083 21.0008 61.637 21.0008C50.1657 21.0008 40.4494 25.0699 32.4879 33.208C24.5265 41.3461 20.5458 51.2781 20.5458 63.004C20.5458 74.7299 24.5265 84.662 32.4879 92.8001C40.4494 100.938 50.1657 105.007 61.637 105.007Z" fill="#F20E0E"/>
</svg>
