<svg width="34" height="34" viewBox="0 0 34 34" fill="none" xmlns="http://www.w3.org/2000/svg">
<path d="M8.5 26.9154V28.332C8.5 28.7334 8.36424 29.0699 8.09271 29.3414C7.82118 29.6129 7.48472 29.7487 7.08333 29.7487H5.66667C5.26528 29.7487 4.92882 29.6129 4.65729 29.3414C4.38576 29.0699 4.25 28.7334 4.25 28.332V16.9987L7.225 8.4987C7.36667 8.0737 7.62049 7.73134 7.98646 7.47161C8.35243 7.21189 8.75972 7.08203 9.20833 7.08203H24.7917C25.2403 7.08203 25.6476 7.21189 26.0135 7.47161C26.3795 7.73134 26.6333 8.0737 26.775 8.4987L29.75 16.9987V28.332C29.75 28.7334 29.6142 29.0699 29.3427 29.3414C29.0712 29.6129 28.7347 29.7487 28.3333 29.7487H26.9167C26.5153 29.7487 26.1788 29.6129 25.9073 29.3414C25.6358 29.0699 25.5 28.7334 25.5 28.332V26.9154H8.5ZM8.21667 14.1654H25.7833L24.2958 9.91536H9.70417L8.21667 14.1654ZM10.625 22.6654C11.2153 22.6654 11.717 22.4588 12.1302 22.0456C12.5434 21.6324 12.75 21.1306 12.75 20.5404C12.75 19.9501 12.5434 19.4483 12.1302 19.0352C11.717 18.622 11.2153 18.4154 10.625 18.4154C10.0347 18.4154 9.53299 18.622 9.11979 19.0352C8.7066 19.4483 8.5 19.9501 8.5 20.5404C8.5 21.1306 8.7066 21.6324 9.11979 22.0456C9.53299 22.4588 10.0347 22.6654 10.625 22.6654ZM23.375 22.6654C23.9653 22.6654 24.467 22.4588 24.8802 22.0456C25.2934 21.6324 25.5 21.1306 25.5 20.5404C25.5 19.9501 25.2934 19.4483 24.8802 19.0352C24.467 18.622 23.9653 18.4154 23.375 18.4154C22.7847 18.4154 22.283 18.622 21.8698 19.0352C21.4566 19.4483 21.25 19.9501 21.25 20.5404C21.25 21.1306 21.4566 21.6324 21.8698 22.0456C22.283 22.4588 22.7847 22.6654 23.375 22.6654ZM7.08333 24.082H26.9167V16.9987H7.08333V24.082Z" fill="#111111"/>
</svg>
