<svg width="34" height="34" viewBox="0 0 34 34" fill="none" xmlns="http://www.w3.org/2000/svg">
<path d="M5.66634 28.3346C4.88717 28.3346 4.22016 28.0572 3.6653 27.5023C3.11044 26.9475 2.83301 26.2805 2.83301 25.5013V8.5013C2.83301 7.72214 3.11044 7.05512 3.6653 6.50026C4.22016 5.9454 4.88717 5.66797 5.66634 5.66797H14.1663L16.9997 8.5013H28.333C29.1122 8.5013 29.7792 8.77873 30.3341 9.33359C30.8889 9.88845 31.1663 10.5555 31.1663 11.3346V25.5013C31.1663 26.2805 30.8889 26.9475 30.3341 27.5023C29.7792 28.0572 29.1122 28.3346 28.333 28.3346H5.66634ZM5.66634 25.5013H28.333V11.3346H15.8309L12.9976 8.5013H5.66634V25.5013Z" fill="#111111"/>
</svg>
