<svg width="34" height="34" viewBox="0 0 34 34" fill="none" xmlns="http://www.w3.org/2000/svg">
<path d="M16.9997 31.1654C15.0636 31.1654 13.2337 30.7935 11.5101 30.0497C9.78648 29.306 8.28127 28.2907 6.99447 27.0039C5.70766 25.7171 4.69238 24.2119 3.94863 22.4883C3.20488 20.7647 2.83301 18.9348 2.83301 16.9987C2.83301 15.039 3.20488 13.2032 3.94863 11.4914C4.69238 9.7796 5.70766 8.2803 6.99447 6.99349C8.28127 5.70668 9.78648 4.69141 11.5101 3.94766C13.2337 3.20391 15.0636 2.83203 16.9997 2.83203C18.9594 2.83203 20.7952 3.20391 22.507 3.94766C24.2188 4.69141 25.7181 5.70668 27.0049 6.99349C28.2917 8.2803 29.307 9.7796 30.0507 11.4914C30.7945 13.2032 31.1663 15.039 31.1663 16.9987C31.1663 18.9348 30.7945 20.7647 30.0507 22.4883C29.307 24.2119 28.2917 25.7171 27.0049 27.0039C25.7181 28.2907 24.2188 29.306 22.507 30.0497C20.7952 30.7935 18.9594 31.1654 16.9997 31.1654ZM16.9997 28.2612C17.6136 27.4112 18.1448 26.5258 18.5934 25.6049C19.042 24.6841 19.408 23.7043 19.6913 22.6654H14.308C14.5913 23.7043 14.9573 24.6841 15.4059 25.6049C15.8545 26.5258 16.3858 27.4112 16.9997 28.2612ZM13.3163 27.6945C12.8913 26.9154 12.5195 26.1067 12.2007 25.2685C11.882 24.4303 11.6163 23.5626 11.4038 22.6654H7.22467C7.9094 23.8459 8.7653 24.873 9.79238 25.7466C10.8195 26.6202 11.9941 27.2695 13.3163 27.6945ZM20.683 27.6945C22.0052 27.2695 23.1799 26.6202 24.207 25.7466C25.2341 24.873 26.09 23.8459 26.7747 22.6654H22.5955C22.383 23.5626 22.1174 24.4303 21.7986 25.2685C21.4799 26.1067 21.108 26.9154 20.683 27.6945ZM6.02051 19.832H10.8372C10.7663 19.3598 10.7132 18.8935 10.6778 18.4331C10.6424 17.9727 10.6247 17.4945 10.6247 16.9987C10.6247 16.5029 10.6424 16.0247 10.6778 15.5643C10.7132 15.1039 10.7663 14.6376 10.8372 14.1654H6.02051C5.90245 14.6376 5.81391 15.1039 5.75488 15.5643C5.69586 16.0247 5.66634 16.5029 5.66634 16.9987C5.66634 17.4945 5.69586 17.9727 5.75488 18.4331C5.81391 18.8935 5.90245 19.3598 6.02051 19.832ZM13.6705 19.832H20.3288C20.3997 19.3598 20.4528 18.8935 20.4882 18.4331C20.5236 17.9727 20.5413 17.4945 20.5413 16.9987C20.5413 16.5029 20.5236 16.0247 20.4882 15.5643C20.4528 15.1039 20.3997 14.6376 20.3288 14.1654H13.6705C13.5997 14.6376 13.5465 15.1039 13.5111 15.5643C13.4757 16.0247 13.458 16.5029 13.458 16.9987C13.458 17.4945 13.4757 17.9727 13.5111 18.4331C13.5465 18.8935 13.5997 19.3598 13.6705 19.832ZM23.1622 19.832H27.9788C28.0969 19.3598 28.1854 18.8935 28.2445 18.4331C28.3035 17.9727 28.333 17.4945 28.333 16.9987C28.333 16.5029 28.3035 16.0247 28.2445 15.5643C28.1854 15.1039 28.0969 14.6376 27.9788 14.1654H23.1622C23.233 14.6376 23.2861 15.1039 23.3216 15.5643C23.357 16.0247 23.3747 16.5029 23.3747 16.9987C23.3747 17.4945 23.357 17.9727 23.3216 18.4331C23.2861 18.8935 23.233 19.3598 23.1622 19.832ZM22.5955 11.332H26.7747C26.09 10.1515 25.2341 9.12439 24.207 8.25078C23.1799 7.37717 22.0052 6.72786 20.683 6.30286C21.108 7.08203 21.4799 7.89071 21.7986 8.72891C22.1174 9.5671 22.383 10.4348 22.5955 11.332ZM14.308 11.332H19.6913C19.408 10.2931 19.042 9.31328 18.5934 8.39245C18.1448 7.47161 17.6136 6.5862 16.9997 5.7362C16.3858 6.5862 15.8545 7.47161 15.4059 8.39245C14.9573 9.31328 14.5913 10.2931 14.308 11.332ZM7.22467 11.332H11.4038C11.6163 10.4348 11.882 9.5671 12.2007 8.72891C12.5195 7.89071 12.8913 7.08203 13.3163 6.30286C11.9941 6.72786 10.8195 7.37717 9.79238 8.25078C8.7653 9.12439 7.9094 10.1515 7.22467 11.332Z" fill="#111111"/>
</svg>
