<svg width="34" height="34" viewBox="0 0 34 34" fill="none" xmlns="http://www.w3.org/2000/svg">
<path d="M17.0002 31.1654C15.0641 31.1654 13.2342 30.7935 11.5106 30.0497C9.78697 29.306 8.28176 28.2907 6.99495 27.0039C5.70815 25.7171 4.69287 24.2119 3.94912 22.4883C3.20537 20.7647 2.8335 18.9348 2.8335 16.9987C2.8335 15.039 3.20537 13.2032 3.94912 11.4914C4.69287 9.7796 5.70815 8.2803 6.99495 6.99349C8.28176 5.70668 9.78697 4.69141 11.5106 3.94766C13.2342 3.20391 15.0641 2.83203 17.0002 2.83203C18.9599 2.83203 20.7957 3.20391 22.5075 3.94766C24.2193 4.69141 25.7186 5.70668 27.0054 6.99349C28.2922 8.2803 29.3075 9.7796 30.0512 11.4914C30.795 13.2032 31.1668 15.039 31.1668 16.9987C31.1668 18.9348 30.795 20.7647 30.0512 22.4883C29.3075 24.2119 28.2922 25.7171 27.0054 27.0039C25.7186 28.2907 24.2193 29.306 22.5075 30.0497C20.7957 30.7935 18.9599 31.1654 17.0002 31.1654ZM17.0002 28.2612C17.6141 27.4112 18.1453 26.5258 18.5939 25.6049C19.0425 24.6841 19.4085 23.7043 19.6918 22.6654H14.3085C14.5918 23.7043 14.9578 24.6841 15.4064 25.6049C15.855 26.5258 16.3863 27.4112 17.0002 28.2612ZM13.3168 27.6945C12.8918 26.9154 12.52 26.1067 12.2012 25.2685C11.8825 24.4303 11.6168 23.5626 11.4043 22.6654H7.22516C7.90989 23.8459 8.76579 24.873 9.79287 25.7466C10.82 26.6202 11.9946 27.2695 13.3168 27.6945ZM20.6835 27.6945C22.0057 27.2695 23.1804 26.6202 24.2075 25.7466C25.2345 24.873 26.0904 23.8459 26.7752 22.6654H22.596C22.3835 23.5626 22.1179 24.4303 21.7991 25.2685C21.4804 26.1067 21.1085 26.9154 20.6835 27.6945ZM6.021 19.832H10.8377C10.7668 19.3598 10.7137 18.8935 10.6783 18.4331C10.6429 17.9727 10.6252 17.4945 10.6252 16.9987C10.6252 16.5029 10.6429 16.0247 10.6783 15.5643C10.7137 15.1039 10.7668 14.6376 10.8377 14.1654H6.021C5.90294 14.6376 5.8144 15.1039 5.75537 15.5643C5.69634 16.0247 5.66683 16.5029 5.66683 16.9987C5.66683 17.4945 5.69634 17.9727 5.75537 18.4331C5.8144 18.8935 5.90294 19.3598 6.021 19.832ZM13.671 19.832H20.3293C20.4002 19.3598 20.4533 18.8935 20.4887 18.4331C20.5241 17.9727 20.5418 17.4945 20.5418 16.9987C20.5418 16.5029 20.5241 16.0247 20.4887 15.5643C20.4533 15.1039 20.4002 14.6376 20.3293 14.1654H13.671C13.6002 14.6376 13.547 15.1039 13.5116 15.5643C13.4762 16.0247 13.4585 16.5029 13.4585 16.9987C13.4585 17.4945 13.4762 17.9727 13.5116 18.4331C13.547 18.8935 13.6002 19.3598 13.671 19.832ZM23.1627 19.832H27.9793C28.0974 19.3598 28.1859 18.8935 28.245 18.4331C28.304 17.9727 28.3335 17.4945 28.3335 16.9987C28.3335 16.5029 28.304 16.0247 28.245 15.5643C28.1859 15.1039 28.0974 14.6376 27.9793 14.1654H23.1627C23.2335 14.6376 23.2866 15.1039 23.322 15.5643C23.3575 16.0247 23.3752 16.5029 23.3752 16.9987C23.3752 17.4945 23.3575 17.9727 23.322 18.4331C23.2866 18.8935 23.2335 19.3598 23.1627 19.832ZM22.596 11.332H26.7752C26.0904 10.1515 25.2345 9.12439 24.2075 8.25078C23.1804 7.37717 22.0057 6.72786 20.6835 6.30286C21.1085 7.08203 21.4804 7.89071 21.7991 8.72891C22.1179 9.5671 22.3835 10.4348 22.596 11.332ZM14.3085 11.332H19.6918C19.4085 10.2931 19.0425 9.31328 18.5939 8.39245C18.1453 7.47161 17.6141 6.5862 17.0002 5.7362C16.3863 6.5862 15.855 7.47161 15.4064 8.39245C14.9578 9.31328 14.5918 10.2931 14.3085 11.332ZM7.22516 11.332H11.4043C11.6168 10.4348 11.8825 9.5671 12.2012 8.72891C12.52 7.89071 12.8918 7.08203 13.3168 6.30286C11.9946 6.72786 10.82 7.37717 9.79287 8.25078C8.76579 9.12439 7.90989 10.1515 7.22516 11.332Z" fill="#EFEAD3"/>
</svg>
