<svg width="34" height="34" viewBox="0 0 34 34" fill="none" xmlns="http://www.w3.org/2000/svg">
<path d="M5.66683 28.3346C4.88766 28.3346 4.22065 28.0572 3.66579 27.5023C3.11093 26.9475 2.8335 26.2805 2.8335 25.5013V8.5013C2.8335 7.72214 3.11093 7.05512 3.66579 6.50026C4.22065 5.9454 4.88766 5.66797 5.66683 5.66797H28.3335C29.1127 5.66797 29.7797 5.9454 30.3345 6.50026C30.8894 7.05512 31.1668 7.72214 31.1668 8.5013V25.5013C31.1668 26.2805 30.8894 26.9475 30.3345 27.5023C29.7797 28.0572 29.1127 28.3346 28.3335 28.3346H5.66683ZM17.0002 18.418L5.66683 11.3346V25.5013H28.3335V11.3346L17.0002 18.418ZM17.0002 15.5846L28.3335 8.5013H5.66683L17.0002 15.5846ZM5.66683 11.3346V8.5013V25.5013V11.3346Z" fill="#EFEAD3"/>
</svg>
