<svg width="34" height="34" viewBox="0 0 34 34" fill="none" xmlns="http://www.w3.org/2000/svg">
<path d="M5.66634 28.3346C4.88717 28.3346 4.22016 28.0572 3.6653 27.5023C3.11044 26.9475 2.83301 26.2805 2.83301 25.5013V8.5013C2.83301 7.72214 3.11044 7.05512 3.6653 6.50026C4.22016 5.9454 4.88717 5.66797 5.66634 5.66797H28.333C29.1122 5.66797 29.7792 5.9454 30.3341 6.50026C30.8889 7.05512 31.1663 7.72214 31.1663 8.5013V25.5013C31.1663 26.2805 30.8889 26.9475 30.3341 27.5023C29.7792 28.0572 29.1122 28.3346 28.333 28.3346H5.66634ZM16.9997 18.418L5.66634 11.3346V25.5013H28.333V11.3346L16.9997 18.418ZM16.9997 15.5846L28.333 8.5013H5.66634L16.9997 15.5846ZM5.66634 11.3346V8.5013V25.5013V11.3346Z" fill="#111111"/>
</svg>
