<svg width="29" height="29" viewBox="0 0 29 29" fill="none" xmlns="http://www.w3.org/2000/svg">
<path d="M25.3748 15.4546C25.1847 17.5114 24.4128 19.4716 23.1493 21.1057C21.8859 22.7398 20.1831 23.9803 18.2404 24.6821C16.2977 25.3838 14.1952 25.5177 12.1792 25.0682C10.1631 24.6187 8.31671 23.6042 6.85611 22.1436C5.39552 20.683 4.3811 18.8367 3.93156 16.8206C3.48202 14.8045 3.61596 12.7021 4.31769 10.7594C5.01942 8.81662 6.25993 7.1139 7.89406 5.85045C9.52819 4.587 11.4883 3.81508 13.5452 3.625C12.341 5.25416 11.7615 7.26142 11.9122 9.28171C12.0628 11.302 12.9336 13.2011 14.3661 14.6336C15.7986 16.0662 17.6978 16.9369 19.7181 17.0876C21.7383 17.2383 23.7456 16.6588 25.3748 15.4546Z" fill="#111111"/>
</svg>
