<svg width="58" height="58" viewBox="0 0 58 58" fill="none" xmlns="http://www.w3.org/2000/svg">
<rect x="0.5" y="0.5" width="57" height="57" rx="28.5" stroke="#EFEAD3"/>
<path fill-rule="evenodd" clip-rule="evenodd" d="M36.5003 24C36.5003 28.1421 33.1424 31.5 29.0003 31.5C24.8582 31.5 21.5003 28.1421 21.5003 24C21.5003 19.8579 24.8582 16.5 29.0003 16.5C33.1424 16.5 36.5003 19.8579 36.5003 24ZM34.0003 24C34.0003 26.7614 31.7617 29 29.0003 29C26.2389 29 24.0003 26.7614 24.0003 24C24.0003 21.2386 26.2389 19 29.0003 19C31.7617 19 34.0003 21.2386 34.0003 24Z" fill="#EFEAD3"/>
<path d="M29.0003 35.25C20.9073 35.25 14.0119 40.0355 11.3853 46.7401C12.0251 47.3754 12.6992 47.9765 13.4044 48.5401C15.3603 42.3846 21.4962 37.75 29.0003 37.75C36.5044 37.75 42.6403 42.3846 44.5962 48.5401C45.3014 47.9765 45.9755 47.3755 46.6154 46.7401C43.9887 40.0355 37.0933 35.25 29.0003 35.25Z" fill="#EFEAD3"/>
</svg>
