<svg width="34" height="34" viewBox="0 0 34 34" fill="none" xmlns="http://www.w3.org/2000/svg">
<path d="M17.0001 31.1656C15.2293 31.1656 13.5706 30.8292 12.0241 30.1562C10.4775 29.4833 9.1317 28.5743 7.98656 27.4292C6.84142 26.284 5.93239 24.9382 5.25947 23.3917C4.58656 21.8451 4.2501 20.1865 4.2501 18.4156C4.2501 16.6448 4.58656 14.9861 5.25947 13.4396C5.93239 11.8931 6.84142 10.5472 7.98656 9.40208C9.1317 8.25694 10.4775 7.34792 12.0241 6.675C13.5706 6.00208 15.2293 5.66562 17.0001 5.66562C18.7709 5.66562 20.4296 6.00208 21.9761 6.675C23.5227 7.34792 24.8685 8.25694 26.0136 9.40208C27.1588 10.5472 28.0678 11.8931 28.7407 13.4396C29.4136 14.9861 29.7501 16.6448 29.7501 18.4156C29.7501 20.1865 29.4136 21.8451 28.7407 23.3917C28.0678 24.9382 27.1588 26.284 26.0136 27.4292C24.8685 28.5743 23.5227 29.4833 21.9761 30.1562C20.4296 30.8292 18.7709 31.1656 17.0001 31.1656ZM20.9668 24.3656L22.9501 22.3823L18.4168 17.849V11.3323H15.5834V18.9823L20.9668 24.3656ZM7.93343 3.32812L9.91677 5.31146L3.89593 11.3323L1.9126 9.34896L7.93343 3.32812ZM26.0668 3.32812L32.0876 9.34896L30.1043 11.3323L24.0834 5.31146L26.0668 3.32812ZM17.0001 28.3323C19.7626 28.3323 22.106 27.3701 24.0303 25.4458C25.9546 23.5215 26.9168 21.1781 26.9168 18.4156C26.9168 15.6531 25.9546 13.3097 24.0303 11.3854C22.106 9.46111 19.7626 8.49896 17.0001 8.49896C14.2376 8.49896 11.8942 9.46111 9.96989 11.3854C8.04558 13.3097 7.08343 15.6531 7.08343 18.4156C7.08343 21.1781 8.04558 23.5215 9.96989 25.4458C11.8942 27.3701 14.2376 28.3323 17.0001 28.3323Z" fill="#EFEAD3"/>
</svg>
