<svg width="34" height="34" viewBox="0 0 34 34" fill="none" xmlns="http://www.w3.org/2000/svg">
<path d="M16.9996 31.1656C15.2288 31.1656 13.5701 30.8292 12.0236 30.1562C10.477 29.4833 9.13121 28.5743 7.98607 27.4292C6.84093 26.284 5.9319 24.9382 5.25898 23.3917C4.58607 21.8451 4.24961 20.1865 4.24961 18.4156C4.24961 16.6448 4.58607 14.9861 5.25898 13.4396C5.9319 11.8931 6.84093 10.5472 7.98607 9.40208C9.13121 8.25694 10.477 7.34792 12.0236 6.675C13.5701 6.00208 15.2288 5.66562 16.9996 5.66562C18.7704 5.66562 20.4291 6.00208 21.9757 6.675C23.5222 7.34792 24.868 8.25694 26.0132 9.40208C27.1583 10.5472 28.0673 11.8931 28.7402 13.4396C29.4132 14.9861 29.7496 16.6448 29.7496 18.4156C29.7496 20.1865 29.4132 21.8451 28.7402 23.3917C28.0673 24.9382 27.1583 26.284 26.0132 27.4292C24.868 28.5743 23.5222 29.4833 21.9757 30.1562C20.4291 30.8292 18.7704 31.1656 16.9996 31.1656ZM20.9663 24.3656L22.9496 22.3823L18.4163 17.849V11.3323H15.5829V18.9823L20.9663 24.3656ZM7.93294 3.32812L9.91628 5.31146L3.89544 11.3323L1.91211 9.34896L7.93294 3.32812ZM26.0663 3.32812L32.0871 9.34896L30.1038 11.3323L24.0829 5.31146L26.0663 3.32812ZM16.9996 28.3323C19.7621 28.3323 22.1055 27.3701 24.0298 25.4458C25.9541 23.5215 26.9163 21.1781 26.9163 18.4156C26.9163 15.6531 25.9541 13.3097 24.0298 11.3854C22.1055 9.46111 19.7621 8.49896 16.9996 8.49896C14.2371 8.49896 11.8937 9.46111 9.9694 11.3854C8.0451 13.3097 7.08294 15.6531 7.08294 18.4156C7.08294 21.1781 8.0451 23.5215 9.9694 25.4458C11.8937 27.3701 14.2371 28.3323 16.9996 28.3323Z" fill="#111111"/>
</svg>
